<svg id="Layer_1" data-name="Layer 1" xmlns="http://www.w3.org/2000/svg" viewBox="0 0 64 64"><defs><style>.cls-1{fill:#83f5fe;}.cls-2{fill:#f5efca;}.cls-3{fill:#f9eab0;}.cls-4{fill:#2c2f38;}.cls-5{fill:#81ccb8;}.cls-6{fill:#3f5c6c;}.cls-7{fill:#35495e;}.cls-8{fill:#a1ffe6;}</style></defs><title>Untitled-1</title><g id="_009---Keyboard" data-name="009---Keyboard"><path id="Rectangle-path" class="cls-1" d="M1.56,39.65,37.76,3.19a5.31,5.31,0,0,1,7.54,0L60.38,18.38a5.4,5.4,0,0,1,0,7.59L24.18,62.43a5.31,5.31,0,0,1-7.54,0L1.56,47.24A5.4,5.4,0,0,1,1.56,39.65Z"/><path id="Shape" class="cls-2" d="M29.09,57.49l-4.9,4.94-.41.35-12-12.13a1.09,1.09,0,0,1,0-1.53l3-3,6.78,6.84a1.07,1.07,0,0,0,1.51,0l.75-.76Z"/><path id="Shape-2" data-name="Shape" class="cls-3" d="M55.49,30.91l-5.28,5.32-5.28-5.32.76-.75a1.09,1.09,0,0,0,0-1.53L38.89,21.8l2.27-2.28,6.78,6.83a1.06,1.06,0,0,0,1.5,0l.76-.76Z"/><path id="Shape-3" data-name="Shape" class="cls-4" d="M24.57,51.41l-.76.76-.75.76a1.07,1.07,0,0,1-1.51,0L14.77,46.1l1.5-1.51,1.51-1.51,6.78,6.83A1.08,1.08,0,0,1,24.57,51.41Z"/><path id="Shape-4" data-name="Shape" class="cls-3" d="M34.37,52.18l-5.28,5.32-5.28-5.32.76-.76a1.08,1.08,0,0,0,0-1.51l-6.78-6.83L20,40.78l6.78,6.84a1.07,1.07,0,0,0,1.51,0l.75-.76Z"/><path id="Shape-5" data-name="Shape" class="cls-2" d="M39.65,46.86l-5.28,5.32-5.28-5.32.76-.76a1.08,1.08,0,0,0,0-1.51l-6.78-6.83,3.77-3.8Z"/><path id="Shape-6" data-name="Shape" class="cls-4" d="M29.85,46.1l-.76.76-.75.76a1.07,1.07,0,0,1-1.51,0L20,40.78l1.5-1.51,1.51-1.51,6.78,6.83A1.08,1.08,0,0,1,29.85,46.1Z"/><path id="Shape-7" data-name="Shape" class="cls-3" d="M44.93,41.54l-5.28,5.32L26.83,33.95l3.78-3.79L37.39,37a1.06,1.06,0,0,0,1.5,0l.76-.76Z"/><path id="Shape-8" data-name="Shape" class="cls-4" d="M40.41,35.46,38.89,37a1.06,1.06,0,0,1-1.5,0L30.6,30.16l3-3,6.79,6.83a1.08,1.08,0,0,1,0,1.51Z"/><path id="Shape-9" data-name="Shape" class="cls-2" d="M50.21,36.23l-5.28,5.32-5.28-5.32.76-.76a1.08,1.08,0,0,0,0-1.51l-6.79-6.83,2.27-2.28,6.78,6.83a1.06,1.06,0,0,0,1.5,0l.76-.76Z"/><path id="Shape-10" data-name="Shape" class="cls-4" d="M45.69,30.16l-.76.75-.76.76a1.06,1.06,0,0,1-1.5,0l-6.78-6.83,1.5-1.53,1.5-1.51,6.79,6.83A1.09,1.09,0,0,1,45.69,30.16Z"/><path id="Shape-11" data-name="Shape" class="cls-2" d="M60.75,25.57l-.35.41-4.91,4.93-5.28-5.32.76-.75a1.09,1.09,0,0,0,0-1.53l-6.79-6.83,3-3a1.07,1.07,0,0,1,1.51,0Z"/><path id="Shape-12" data-name="Shape" class="cls-4" d="M51,24.84l-.76.75-.76.76a1.06,1.06,0,0,1-1.5,0l-6.78-6.83L42.67,18l1.5-1.51L51,23.32A1.09,1.09,0,0,1,51,24.84Z"/><path id="Rectangle-path-2" data-name="Rectangle-path" class="cls-5" d="M18.91,28.25l7.54-7.59a1.06,1.06,0,0,1,1.51,0l2.26,2.28a1.08,1.08,0,0,1,0,1.52l-7.54,7.59a1.06,1.06,0,0,1-1.51,0l-2.26-2.28A1.08,1.08,0,0,1,18.91,28.25Z"/><ellipse id="Oval" class="cls-6" cx="9.11" cy="41.92" rx="3.73" ry="3.76"/><ellipse id="Oval-2" data-name="Oval" class="cls-6" cx="40.03" cy="10.79" rx="3.73" ry="3.76"/><path id="Shape-13" data-name="Shape" class="cls-7" d="M15.89,33.89a1.07,1.07,0,0,1-1-.66,1.08,1.08,0,0,1,.23-1.17l.76-.76a1.06,1.06,0,0,1,1.78.48,1.08,1.08,0,0,1-.28,1l-.76.76A1.06,1.06,0,0,1,15.89,33.89Z"/><path id="Shape-14" data-name="Shape" class="cls-7" d="M18.16,36.16a1.07,1.07,0,0,1-1-.66,1.08,1.08,0,0,1,.23-1.17l.75-.76a1.06,1.06,0,0,1,1.51,0,1.08,1.08,0,0,1,0,1.52l-.75.76a1.06,1.06,0,0,1-.76.31Z"/><path id="Shape-15" data-name="Shape" class="cls-7" d="M30.22,19.45a1.07,1.07,0,0,1-1-.66,1.08,1.08,0,0,1,.23-1.17l.75-.76a1.06,1.06,0,0,1,1.5,0,1.08,1.08,0,0,1,0,1.51l-.75.76A1.06,1.06,0,0,1,30.22,19.45Z"/><path id="Shape-16" data-name="Shape" class="cls-7" d="M32.49,21.73a1.07,1.07,0,0,1-1-.66,1.08,1.08,0,0,1,.23-1.17l.75-.76a1.06,1.06,0,0,1,1.8.47,1.08,1.08,0,0,1-.29,1l-.75.76a1.06,1.06,0,0,1-.75.31Z"/><path id="Shape-17" data-name="Shape" class="cls-8" d="M8.58,21a1.07,1.07,0,0,1-1.07-1.07V1.66a1.07,1.07,0,0,1,2.1-.26C10.47,4.83,16,4.88,16,4.88A1.07,1.07,0,0,1,16,7a11.82,11.82,0,0,1-6.4-1.95V19.92a1.08,1.08,0,0,1-.31.76A1.06,1.06,0,0,1,8.58,21Z"/><path id="Shape-18" data-name="Shape" class="cls-1" d="M63,43.55V60.74a1.07,1.07,0,1,1-2.13,0v-14h-9.6v14a1.07,1.07,0,1,1-2.13,0V43.55a2.15,2.15,0,0,1,2.13-2.15h9.6A2.15,2.15,0,0,1,63,43.55Z"/><ellipse id="Oval-3" data-name="Oval" class="cls-8" cx="5.38" cy="19.92" rx="4.27" ry="3.22"/><ellipse id="Oval-4" data-name="Oval" class="cls-1" cx="46.98" cy="60.74" rx="4.27" ry="3.22"/><ellipse id="Oval-5" data-name="Oval" class="cls-1" cx="58.71" cy="60.74" rx="4.27" ry="3.22"/></g></svg>