<svg id="Layer_1" data-name="Layer 1" xmlns="http://www.w3.org/2000/svg" viewBox="0 0 64 64"><defs><style>.cls-1{fill:#83f5fe;}.cls-2{fill:#fffede;}</style></defs><title>Untitled-1</title><path class="cls-1" d="M37.44,51.85h0c0,2.48-1.5,4.49-3.36,4.49H29.89c-1.86,0-3.36-2-3.36-4.49H1.25v2.63c0,4.34,2.63,7.85,5.87,7.85H56.88c3.24,0,5.87-3.52,5.87-7.85V51.85Z"/><path class="cls-1" d="M58.4,6.87c0-2.87-1.74-5.2-3.88-5.2h-45C7.34,1.67,5.6,4,5.6,6.87v45H26.52c0,2.53,1.54,4.59,3.43,4.59h4.12c1.9,0,3.43-2.06,3.43-4.59H58.4v-45Z"/><rect class="cls-2" x="11.15" y="8.8" width="42.12" height="36.01"/><ellipse cx="18.18" cy="29.66" rx="1.25" ry="1.67"/><ellipse cx="25.32" cy="35.23" rx="1.25" ry="1.67"/><ellipse cx="32.43" cy="24.87" rx="1.25" ry="1.67"/><ellipse cx="39.4" cy="28.99" rx="1.25" ry="1.67"/><ellipse cx="46.29" cy="17.19" rx="1.25" ry="1.67"/><path d="M62.75,50.18H37.44c-.69,0-1.25.75-1.25,1.67,0,1.56-.95,2.82-2.11,2.82H29.89c-1.16,0-2.11-1.27-2.11-2.82,0-.92-.56-1.67-1.25-1.67H6.85V6.87C6.85,4.92,8,3.34,9.49,3.34h45c1.45,0,2.63,1.58,2.63,3.52V39.05c0,.92.56,1.67,1.25,1.67s1.25-.75,1.25-1.67V6.87c0-3.79-2.3-6.87-5.13-6.87h-45C6.66,0,4.35,3.08,4.35,6.87V50.18H1.25c-.69,0-1.25.75-1.25,1.67v2.63C0,59.73,3.2,64,7.12,64H56.88C60.8,64,64,59.73,64,54.47V51.85C64,50.92,63.44,50.18,62.75,50.18Zm-1.25,4.3c0,3.41-2.07,6.18-4.62,6.18H7.12c-2.55,0-4.62-2.77-4.62-6.18v-1h23C26,56.11,27.78,58,29.89,58h4.19c2.11,0,3.89-1.9,4.44-4.49h23Z"/><path d="M53.27,7.13H11.15c-.69,0-1.25.75-1.25,1.67v36c0,.92.56,1.67,1.25,1.67H53.27c.69,0,1.25-.75,1.25-1.67V8.8C54.52,7.88,54,7.13,53.27,7.13ZM52,43.14H47.54v-20c0-.92-.56-1.67-1.25-1.67S45,22.18,45,23.11v20H40.51V35.71c0-.92-.56-1.67-1.25-1.67S38,34.78,38,35.71v7.44H33.49V31.84c0-.92-.56-1.67-1.25-1.67S31,30.92,31,31.84v11.3H26.46V41.53c0-.92-.56-1.67-1.25-1.67S24,40.61,24,41.53v1.61H19.43V36.51c0-.92-.56-1.67-1.25-1.67s-1.25.75-1.25,1.67v6.63H12.4V10.47H52Z"/><ellipse cx="58.25" cy="45.59" rx="1.25" ry="1.67"/></svg>