<svg id="Layer_1" data-name="Layer 1" xmlns="http://www.w3.org/2000/svg" viewBox="0 0 64 64"><defs><style>.cls-1{fill:#57a4ff;}.cls-2{fill:#83f5fe;}.cls-3{fill:#004fac;}</style></defs><title>Untitled-1</title><ellipse class="cls-1" cx="15.45" cy="13.41" rx="2.21" ry="1.96"/><path class="cls-2" d="M15.45,25.15a2,2,0,1,0,0,3.91,2,2,0,1,0,0-3.91Zm0,0a2,2,0,1,0,0,3.91,2,2,0,1,0,0-3.91Zm0,0a2,2,0,1,0,0,3.91,2,2,0,1,0,0-3.91Zm0,0a2,2,0,1,0,0,3.91,2,2,0,1,0,0-3.91Zm6.62-22.5H8.83A4.19,4.19,0,0,0,4.41,6.56V45.7a4.19,4.19,0,0,0,4.41,3.91H22.07a4.19,4.19,0,0,0,4.41-3.91V6.56A4.19,4.19,0,0,0,22.07,2.65ZM21,38.85h-11V35.91H21ZM15.45,32c-3,0-5.52-2.19-5.52-4.89s2.47-4.89,5.52-4.89S21,24.41,21,27.11,18.5,32,15.45,32Zm0-13.7c-3,0-5.52-2.19-5.52-4.89s2.47-4.89,5.52-4.89S21,10.71,21,13.41,18.5,18.3,15.45,18.3Zm0,6.85a2,2,0,1,0,0,3.91,2,2,0,1,0,0-3.91Zm0,0a2,2,0,1,0,0,3.91,2,2,0,1,0,0-3.91Zm0,0a2,2,0,1,0,0,3.91,2,2,0,1,0,0-3.91Zm0,0a2,2,0,1,0,0,3.91,2,2,0,1,0,0-3.91Zm0,0a2,2,0,1,0,0,3.91,2,2,0,1,0,0-3.91Z"/><ellipse class="cls-1" cx="15.45" cy="27.11" rx="2.21" ry="1.96"/><ellipse class="cls-1" cx="15.45" cy="13.41" rx="2.21" ry="1.96"/><ellipse class="cls-1" cx="15.45" cy="13.41" rx="2.21" ry="1.96"/><ellipse class="cls-1" cx="15.45" cy="27.11" rx="2.21" ry="1.96"/><path class="cls-1" d="M29.79,61.35H1.1l2.21-2.93H27.59Z"/><ellipse class="cls-1" cx="48.55" cy="13.41" rx="2.21" ry="1.96"/><path class="cls-2" d="M48.55,25.15a2,2,0,1,0,2.21,2A2.09,2.09,0,0,0,48.55,25.15Zm0,0a2,2,0,1,0,2.21,2A2.09,2.09,0,0,0,48.55,25.15Zm0,0a2,2,0,1,0,2.21,2A2.09,2.09,0,0,0,48.55,25.15Zm0,0a2,2,0,1,0,2.21,2A2.09,2.09,0,0,0,48.55,25.15Zm0,0a2,2,0,1,0,2.21,2A2.09,2.09,0,0,0,48.55,25.15Zm0,0a2,2,0,1,0,2.21,2A2.09,2.09,0,0,0,48.55,25.15Zm6.62-22.5H41.93a4.19,4.19,0,0,0-4.41,3.91V45.7a4.19,4.19,0,0,0,4.41,3.91H55.17a4.19,4.19,0,0,0,4.41-3.91V6.56A4.19,4.19,0,0,0,55.17,2.65Zm-1.1,36.2H43V35.91h11ZM48.55,32c-3,0-5.52-2.19-5.52-4.89s2.47-4.89,5.52-4.89,5.52,2.19,5.52,4.89S51.6,32,48.55,32Zm0-13.7c-3,0-5.52-2.19-5.52-4.89s2.47-4.89,5.52-4.89,5.52,2.19,5.52,4.89S51.6,18.3,48.55,18.3Zm0,6.85a2,2,0,1,0,2.21,2A2.09,2.09,0,0,0,48.55,25.15Zm0,0a2,2,0,1,0,2.21,2A2.09,2.09,0,0,0,48.55,25.15Zm0,0a2,2,0,1,0,2.21,2A2.09,2.09,0,0,0,48.55,25.15Zm0,0a2,2,0,1,0,2.21,2A2.09,2.09,0,0,0,48.55,25.15Zm0,0a2,2,0,1,0,2.21,2A2.09,2.09,0,0,0,48.55,25.15Zm0,0a2,2,0,1,0,2.21,2A2.09,2.09,0,0,0,48.55,25.15Zm0,0a2,2,0,1,0,2.21,2A2.09,2.09,0,0,0,48.55,25.15Z"/><ellipse class="cls-1" cx="48.55" cy="27.11" rx="2.21" ry="1.96"/><ellipse class="cls-1" cx="48.55" cy="13.41" rx="2.21" ry="1.96"/><ellipse class="cls-1" cx="48.55" cy="13.41" rx="2.21" ry="1.96"/><ellipse class="cls-1" cx="48.55" cy="27.11" rx="2.21" ry="1.96"/><path class="cls-1" d="M62.9,61.35H34.21l2.21-2.93H60.69Z"/><path class="cls-3" d="M15.45,33c3.66,0,6.62-2.63,6.62-5.87s-3-5.87-6.62-5.87-6.62,2.63-6.62,5.87S11.79,33,15.45,33Zm0-9.78a4.19,4.19,0,0,1,4.41,3.91A4.19,4.19,0,0,1,15.45,31,4.19,4.19,0,0,1,11,27.11,4.19,4.19,0,0,1,15.45,23.2Z"/><path class="cls-3" d="M15.45,19.28c3.66,0,6.62-2.63,6.62-5.87s-3-5.87-6.62-5.87-6.62,2.63-6.62,5.87S11.79,19.28,15.45,19.28Zm0-9.78a4.19,4.19,0,0,1,4.41,3.91,4.19,4.19,0,0,1-4.41,3.91A4.19,4.19,0,0,1,11,13.41,4.19,4.19,0,0,1,15.45,9.5Z"/><path class="cls-3" d="M15.45,16.35a3.14,3.14,0,0,0,3.31-2.93,3.14,3.14,0,0,0-3.31-2.93,3.14,3.14,0,0,0-3.31,2.93A3.14,3.14,0,0,0,15.45,16.35Zm0-3.91a1,1,0,1,1-1.1,1A1,1,0,0,1,15.45,12.43Z"/><path class="cls-3" d="M15.45,30a3.14,3.14,0,0,0,3.31-2.93,3.14,3.14,0,0,0-3.31-2.93,3.14,3.14,0,0,0-3.31,2.93A3.14,3.14,0,0,0,15.45,30Zm0-3.91a1,1,0,1,1-1.1,1A1,1,0,0,1,15.45,26.13Z"/><path class="cls-3" d="M9.93,39.83H21a1,1,0,0,0,1.1-1V35.91a1,1,0,0,0-1.1-1h-11a1,1,0,0,0-1.1,1v2.93A1,1,0,0,0,9.93,39.83ZM11,36.89h8.83v1H11Z"/><path class="cls-3" d="M28.5,57.87a1.15,1.15,0,0,0-.92-.44H18.76V50.59h3.31c3,0,5.51-2.19,5.52-4.89V6.56c0-2.7-2.47-4.89-5.52-4.89H8.83c-3,0-5.51,2.19-5.52,4.89V45.7c0,2.7,2.47,4.89,5.52,4.89h3.31v6.85H3.31a1.15,1.15,0,0,0-.92.44L.19,60.81a.91.91,0,0,0,.31,1.36,1.21,1.21,0,0,0,.61.16H29.79a1,1,0,0,0,1.1-1,.9.9,0,0,0-.19-.54ZM8.83,48.63A3.14,3.14,0,0,1,5.52,45.7V6.56A3.14,3.14,0,0,1,8.83,3.63H22.07a3.14,3.14,0,0,1,3.31,2.93V45.7a3.14,3.14,0,0,1-3.31,2.93Zm7.72,2v6.85H14.34V50.59ZM3.17,60.37l.74-1H27l.74,1Z"/><path class="cls-3" d="M22.07,41.78a1,1,0,0,0-1.1-1h-11a1,1,0,1,0,0,2H21A1,1,0,0,0,22.07,41.78Z"/><path class="cls-3" d="M17.66,45.7a1,1,0,1,0,0-2H13.24a1,1,0,1,0,0,2Z"/><path class="cls-3" d="M48.55,33c3.66,0,6.62-2.63,6.62-5.87s-3-5.87-6.62-5.87-6.62,2.63-6.62,5.87S44.9,33,48.55,33Zm0-9.78A4.19,4.19,0,0,1,53,27.11a4.45,4.45,0,0,1-8.83,0A4.19,4.19,0,0,1,48.55,23.2Z"/><path class="cls-3" d="M48.55,19.28c3.66,0,6.62-2.63,6.62-5.87s-3-5.87-6.62-5.87-6.62,2.63-6.62,5.87S44.9,19.28,48.55,19.28Zm0-9.78A4.19,4.19,0,0,1,53,13.41a4.45,4.45,0,0,1-8.83,0A4.19,4.19,0,0,1,48.55,9.5Z"/><path class="cls-3" d="M48.55,16.35a3.14,3.14,0,0,0,3.31-2.93,3.33,3.33,0,0,0-6.62,0A3.14,3.14,0,0,0,48.55,16.35Zm0-3.91a1,1,0,1,1-1.1,1A1,1,0,0,1,48.55,12.43Z"/><path class="cls-3" d="M48.55,30a3.14,3.14,0,0,0,3.31-2.93,3.33,3.33,0,0,0-6.62,0A3.14,3.14,0,0,0,48.55,30Zm0-3.91a1,1,0,1,1-1.1,1A1,1,0,0,1,48.55,26.13Z"/><path class="cls-3" d="M43,39.83h11a1,1,0,0,0,1.1-1V35.91a1,1,0,0,0-1.1-1H43a1,1,0,0,0-1.1,1v2.93A1,1,0,0,0,43,39.83Zm1.1-2.93H53v1H44.14Z"/><path class="cls-3" d="M63.82,60.81l-2.21-2.93a1.15,1.15,0,0,0-.92-.44H51.86V50.59h3.31c3,0,5.51-2.19,5.52-4.89V6.56c0-2.7-2.47-4.89-5.52-4.89H41.93c-3,0-5.51,2.19-5.52,4.89V45.7c0,2.7,2.47,4.89,5.52,4.89h3.31v6.85H36.41a1.15,1.15,0,0,0-.92.44l-2.21,2.93a.91.91,0,0,0,.31,1.36,1.21,1.21,0,0,0,.61.16H62.9a1,1,0,0,0,1.1-1A.9.9,0,0,0,63.82,60.81ZM41.93,48.63a3.14,3.14,0,0,1-3.31-2.93V6.56a3.14,3.14,0,0,1,3.31-2.93H55.17a3.14,3.14,0,0,1,3.31,2.93V45.7a3.14,3.14,0,0,1-3.31,2.93Zm7.72,2v6.85H47.45V50.59ZM36.27,60.37l.74-1H60.1l.74,1Z"/><path class="cls-3" d="M55.17,41.78a1,1,0,0,0-1.1-1H43a1,1,0,1,0,0,2h11A1,1,0,0,0,55.17,41.78Z"/><path class="cls-3" d="M50.76,45.7a1,1,0,1,0,0-2H46.35a1,1,0,1,0,0,2Z"/></svg>