<svg id="Layer_1" data-name="Layer 1" xmlns="http://www.w3.org/2000/svg" viewBox="0 0 64 64"><defs><style>.cls-1{fill:#f2edda;}.cls-2{fill:#a1ffe6;}.cls-3{fill:#51565f;}</style></defs><title>Untitled-1</title><path class="cls-1" d="M31.95,33.91V12.8a24.63,24.63,0,0,0-9.75-2.11A71.57,71.57,0,0,0,4.87,12.8V59.25A71.57,71.57,0,0,1,22.2,57.14a24.63,24.63,0,0,1,9.75,2.11,34.3,34.3,0,0,1,10.83-2.11A57.6,57.6,0,0,1,59,59.25V12.8a16.07,16.07,0,0,0-6.5-1.06V2.24C43.86,5.41,31.95,12.8,31.95,12.8Z"/><path class="cls-2" d="M63.35,18.08V59.25A4.29,4.29,0,0,1,59,63.47H31.95V59.25a34.3,34.3,0,0,1,10.83-2.11A57.6,57.6,0,0,1,59,59.25V18.08h4.33ZM31.95,59.25v4.22H4.87A4.29,4.29,0,0,1,.54,59.25V18.08H4.87V59.25A71.57,71.57,0,0,1,22.2,57.14,24.63,24.63,0,0,1,31.95,59.25Z"/><path class="cls-3" d="M59,64H4.87A4.79,4.79,0,0,1,0,59.25V18.08a.51.51,0,0,1,.54-.53.51.51,0,0,1,.54.53V59.25a3.79,3.79,0,0,0,3.79,3.69H31.4V59.57a25.43,25.43,0,0,0-9.2-1.9A73.48,73.48,0,0,0,5,59.78a.66.66,0,0,1-.43-.11.54.54,0,0,1-.22-.42V12.8a.54.54,0,0,1,.43-.53A75.39,75.39,0,0,1,22.2,10.16a23.41,23.41,0,0,1,10,2.22.57.57,0,0,1,.32.42V54.08C35.19,52.6,44,47.74,52,45.1V3a109.23,109.23,0,0,0-16.46,8.13.58.58,0,0,1-.76-.21.55.55,0,0,1,.22-.74A103.09,103.09,0,0,1,52.41,1.72c.22-.11.32,0,.54.11a.54.54,0,0,1,.22.42V45.53a.58.58,0,0,1-.32.53c-9.53,3.06-20.36,9.4-20.47,9.5a.5.5,0,0,1-.54,0,.57.57,0,0,1-.32-.42V13.22a25.43,25.43,0,0,0-9.2-1.9,71.86,71.86,0,0,0-16.79,2V58.72a72.44,72.44,0,0,1,16.79-2,23.09,23.09,0,0,1,9.75,2.11,33.66,33.66,0,0,1,10.83-2.11,61.54,61.54,0,0,1,15.7,1.9V13.33A15.39,15.39,0,0,0,56.74,13c-.32-.11-.54-.32-.43-.63A.48.48,0,0,1,57,12c1.41.21,2.27.42,2.27.42a.7.7,0,0,1,.43.53V59.36a.54.54,0,0,1-.22.42.83.83,0,0,1-.54.11,57.83,57.83,0,0,0-16-2.11,35.49,35.49,0,0,0-10.29,1.9V63H59.13a3.79,3.79,0,0,0,3.79-3.69V18.18a.54.54,0,0,1,1.08,0V59.36A4.94,4.94,0,0,1,59,64ZM11.37,48.16a.55.55,0,0,1-.54-.42c-.11-.32.11-.53.43-.63s7.8-2,14.29-.53a.58.58,0,0,1,.43.63.59.59,0,0,1-.65.42c-6.28-1.48-13.75.42-13.86.53Zm26-4.22c-.22,0-.43-.11-.43-.32a.69.69,0,0,1,.22-.74A87.39,87.39,0,0,1,47,38.66a.53.53,0,0,1,.65.32.51.51,0,0,1-.32.63,72,72,0,0,0-9.64,4.22A.4.4,0,0,1,37.36,43.94Zm-26-2.11a.55.55,0,0,1-.54-.42c-.11-.32.11-.53.43-.63s7.8-2,14.29-.53a.58.58,0,0,1,.43.63.59.59,0,0,1-.65.42c-6.28-1.48-13.75.42-13.86.53Zm26-4.22c-.22,0-.43-.11-.43-.32a.69.69,0,0,1,.22-.74A87.39,87.39,0,0,1,47,32.33a.53.53,0,0,1,.65.32.51.51,0,0,1-.32.63,72,72,0,0,0-9.64,4.22A.4.4,0,0,1,37.36,37.61Zm-26-2.11a.55.55,0,0,1-.54-.42c-.11-.32.11-.53.43-.63s7.8-2,14.29-.53a.58.58,0,0,1,.43.63.59.59,0,0,1-.65.42c-6.28-1.48-13.75.42-13.86.53Zm26-4.22c-.22,0-.43-.11-.43-.32a.69.69,0,0,1,.22-.74A87.39,87.39,0,0,1,47,26a.53.53,0,0,1,.65.32.51.51,0,0,1-.32.63,72,72,0,0,0-9.64,4.22A.4.4,0,0,1,37.36,31.27Zm-26-2.11a.55.55,0,0,1-.54-.42c-.11-.32.11-.53.43-.63s7.8-2,14.29-.53a.58.58,0,0,1,.43.63.59.59,0,0,1-.65.42c-6.28-1.48-13.75.42-13.86.53Zm26-4.22c-.22,0-.43-.11-.43-.32a.69.69,0,0,1,.22-.74A87.39,87.39,0,0,1,47,19.66a.53.53,0,0,1,.65.32.51.51,0,0,1-.32.63,72,72,0,0,0-9.64,4.22A.4.4,0,0,1,37.36,24.94Zm-26-2.11a.55.55,0,0,1-.54-.42c-.11-.32.11-.53.43-.63s7.8-2,14.29-.53a.58.58,0,0,1,.43.63.59.59,0,0,1-.65.42c-6.28-1.48-13.75.42-13.86.53Zm26-4.22c-.22,0-.43-.11-.43-.32a.69.69,0,0,1,.22-.74A87.39,87.39,0,0,1,47,13.33a.53.53,0,0,1,.65.32.51.51,0,0,1-.32.63,72,72,0,0,0-9.64,4.22A.4.4,0,0,1,37.36,18.61Z"/></svg>