<svg id="Layer_1" data-name="Layer 1" xmlns="http://www.w3.org/2000/svg" viewBox="0 0 64 64"><defs><style>.cls-1{fill:#83f5fe;}.cls-2{fill:#adb9c3;}.cls-3{fill:#082c56;}.cls-4{fill:#3654c6;}.cls-5{fill:#d5ad00;}.cls-6{fill:#e10d00;}.cls-7{fill:#4d007e;}</style></defs><title>Untitled-1</title><path class="cls-1" d="M47,63H18.42A3.39,3.39,0,0,1,15,59.57V54.65H50.35v4.92A3.39,3.39,0,0,1,47,63Z"/><path class="cls-2" d="M35.8,59.84H29.57a1,1,0,1,1,0-2.08H35.8a1,1,0,0,1,0,2.08Z"/><path class="cls-2" d="M45.15,59.84H41a1,1,0,0,1,0-2.08h4.16a1,1,0,0,1,0,2.08Z"/><path class="cls-2" d="M24.38,59.84H20.22a1,1,0,1,1,0-2.08h4.16a1,1,0,1,1,0,2.08Z"/><path class="cls-1" d="M18.42,2.71H47A3.39,3.39,0,0,1,50.35,6.1V11H15V6.1A3.39,3.39,0,0,1,18.42,2.71Z"/><path class="cls-2" d="M37.88,7.9H27.49a1,1,0,1,1,0-2.08H37.88a1,1,0,0,1,0,2.08Z"/><rect class="cls-3" x="15.03" y="11.02" width="35.32" height="43.63"/><path class="cls-4" d="M22.3,24.53a3.12,3.12,0,1,1,3.12-3.12A3.12,3.12,0,0,1,22.3,24.53Z"/><path class="cls-5" d="M22.3,36a3.12,3.12,0,1,1,3.12-3.12A3.12,3.12,0,0,1,22.3,36Z"/><path class="cls-6" d="M22.3,47.38a3.12,3.12,0,1,1,3.12-3.12A3.12,3.12,0,0,1,22.3,47.38Z"/><path class="cls-7" d="M22.3,25.56a4.16,4.16,0,1,1,4.16-4.16A4.16,4.16,0,0,1,22.3,25.56Zm0-6.23a2.08,2.08,0,1,0,2.08,2.08A2.08,2.08,0,0,0,22.3,19.33Z"/><path class="cls-7" d="M22.3,37a4.16,4.16,0,1,1,4.16-4.16A4.16,4.16,0,0,1,22.3,37Zm0-6.23a2.08,2.08,0,1,0,2.08,2.08A2.08,2.08,0,0,0,22.3,30.76Z"/><path class="cls-7" d="M22.3,48.42a4.16,4.16,0,1,1,4.16-4.16A4.16,4.16,0,0,1,22.3,48.42Zm0-6.23a2.08,2.08,0,1,0,2.08,2.08A2.08,2.08,0,0,0,22.3,42.19Z"/><path class="cls-7" d="M47,64H18.42A4.44,4.44,0,0,1,14,59.57V54.65a1,1,0,0,1,1-1H50.35a1,1,0,0,1,1,1v4.92A4.44,4.44,0,0,1,47,64ZM16.07,55.69v3.88a2.36,2.36,0,0,0,2.35,2.35H47a2.36,2.36,0,0,0,2.35-2.35V55.69Z"/><path class="cls-7" d="M35.8,59.84H29.57a1,1,0,1,1,0-2.08H35.8a1,1,0,0,1,0,2.08Z"/><path class="cls-7" d="M45.15,59.84H41a1,1,0,0,1,0-2.08h4.16a1,1,0,0,1,0,2.08Z"/><path class="cls-7" d="M24.38,59.84H20.22a1,1,0,1,1,0-2.08h4.16a1,1,0,1,1,0,2.08Z"/><path class="cls-7" d="M50.35,12.06H15a1,1,0,0,1-1-1V6.1a4.44,4.44,0,0,1,4.43-4.43H47A4.44,4.44,0,0,1,51.39,6.1V11A1,1,0,0,1,50.35,12.06ZM16.07,10H49.31V6.1A2.36,2.36,0,0,0,47,3.75H18.42A2.36,2.36,0,0,0,16.07,6.1V10Z"/><path class="cls-7" d="M37.88,7.9H27.49a1,1,0,1,1,0-2.08H37.88a1,1,0,0,1,0,2.08Z"/><path class="cls-7" d="M50.35,55.69H15a1,1,0,0,1-1-1V11a1,1,0,0,1,1-1H50.35a1,1,0,0,1,1,1V54.65A1,1,0,0,1,50.35,55.69ZM16.07,53.61H49.31V12.06H16.07Z"/><path class="cls-7" d="M55.53,41.17a1,1,0,0,1-1-1.33,25.1,25.1,0,0,0,0-14,1,1,0,0,1,2-.58,27.18,27.18,0,0,1,0,15.15A1,1,0,0,1,55.53,41.17Z"/><path class="cls-7" d="M9.84,41.17a1,1,0,0,1-1-.75,27.18,27.18,0,0,1,0-15.15,1,1,0,1,1,2,.58,25.09,25.09,0,0,0,0,14,1,1,0,0,1-.71,1.29A1,1,0,0,1,9.84,41.17Z"/><path class="cls-7" d="M4.64,45.3a1,1,0,0,1-.95-.62A30,30,0,0,1,1.52,32.84,30,30,0,0,1,3.69,21a1,1,0,1,1,1.9.85,27.86,27.86,0,0,0-2,11,27.87,27.87,0,0,0,2,11,1,1,0,0,1-.52,1.37A1,1,0,0,1,4.64,45.3Z"/><path class="cls-7" d="M60.73,45.3a1,1,0,0,1-.42-.09,1,1,0,0,1-.53-1.37,27.9,27.9,0,0,0,2-11,27.89,27.89,0,0,0-2-11,1,1,0,0,1,1.9-.85,30,30,0,0,1,2.17,11.85,30,30,0,0,1-2.17,11.85A1,1,0,0,1,60.73,45.3Z"/><path class="cls-7" d="M31.65,20.37H29.57a1,1,0,0,1,0-2.08h2.08a1,1,0,1,1,0,2.08Z"/><path class="cls-7" d="M46.19,20.37H44.11a1,1,0,0,1,0-2.08h2.08a1,1,0,0,1,0,2.08Z"/><path class="cls-7" d="M40,20.37H35.8a1,1,0,0,1,0-2.08H40a1,1,0,0,1,0,2.08Z"/><path class="cls-7" d="M31.65,24.53H29.57a1,1,0,0,1,0-2.08h2.08a1,1,0,1,1,0,2.08Z"/><path class="cls-7" d="M46.19,24.53H35.8a1,1,0,0,1,0-2.08H46.19a1,1,0,0,1,0,2.08Z"/><path class="cls-7" d="M31.65,31.8H29.57a1,1,0,0,1,0-2.08h2.08a1,1,0,1,1,0,2.08Z"/><path class="cls-7" d="M46.19,31.8H44.11a1,1,0,0,1,0-2.08h2.08a1,1,0,0,1,0,2.08Z"/><path class="cls-7" d="M40,31.8H35.8a1,1,0,0,1,0-2.08H40a1,1,0,0,1,0,2.08Z"/><path class="cls-7" d="M31.65,36H29.57a1,1,0,1,1,0-2.08h2.08a1,1,0,1,1,0,2.08Z"/><path class="cls-7" d="M46.19,36H35.8a1,1,0,0,1,0-2.08H46.19a1,1,0,0,1,0,2.08Z"/><path class="cls-7" d="M31.65,43.22H29.57a1,1,0,1,1,0-2.08h2.08a1,1,0,1,1,0,2.08Z"/><path class="cls-7" d="M46.19,43.22H44.11a1,1,0,0,1,0-2.08h2.08a1,1,0,0,1,0,2.08Z"/><path class="cls-7" d="M40,43.22H35.8a1,1,0,0,1,0-2.08H40a1,1,0,0,1,0,2.08Z"/><path class="cls-7" d="M31.65,47.38H29.57a1,1,0,1,1,0-2.08h2.08a1,1,0,1,1,0,2.08Z"/><path class="cls-7" d="M46.19,47.38H35.8a1,1,0,1,1,0-2.08H46.19a1,1,0,0,1,0,2.08Z"/></svg>