<svg id="Layer_1" data-name="Layer 1" xmlns="http://www.w3.org/2000/svg" viewBox="0 0 64 64"><defs><style>.cls-1{fill:#00bcd4;}.cls-2{fill:#00838f;}.cls-3{fill:#a1ffe6;}.cls-4{fill:#00695c;}.cls-5{fill:#f5f5f5;}.cls-6{fill:#ffeb3a;}</style></defs><title>Untitled-1</title><g id="Page-1"><g id="_051---Mouse-Scroll" data-name="051---Mouse-Scroll"><path id="Shape" class="cls-1" d="M62.48,12.21V27H36.57V24.88c0-1.75-2-3.17-4.57-3.17s-4.57,1.42-4.57,3.17V27H1.52V12.21c0-5.83,6.82-10.56,15.24-10.56H47.24C55.65,1.64,62.48,6.37,62.48,12.21Z"/><path id="Shape-2" data-name="Shape" class="cls-2" d="M27.43,21.71c-2.52,0-4.57,1.42-4.57,3.17V27h4.57V24.88a3.17,3.17,0,0,1,2.29-2.73A6.1,6.1,0,0,0,27.43,21.71Z"/><path id="Shape-3" data-name="Shape" class="cls-2" d="M47.24,1.64H42.67c8.42,0,15.24,4.73,15.24,10.56V27h4.57V12.21C62.48,6.37,55.65,1.64,47.24,1.64Z"/><path id="Shape-4" data-name="Shape" class="cls-3" d="M62.48,27V48.12c0,3.92-2.25,7.68-6.25,10.46A26.84,26.84,0,0,1,41.14,62.9H22.86c-11.78,0-21.33-6.62-21.33-14.79V27h25.9v2.11c0,1.75,2,3.17,4.57,3.17s4.57-1.42,4.57-3.17V27Z"/><path id="Shape-5" data-name="Shape" class="cls-4" d="M57.9,27V48.12c0,8.17-9.55,14.79-21.33,14.79h4.57a26.84,26.84,0,0,0,15.08-4.33c4-2.77,6.25-6.53,6.25-10.46V27Z"/><path id="Shape-6" data-name="Shape" class="cls-4" d="M27.43,32.27a6.13,6.13,0,0,0,2.29-.44,3.17,3.17,0,0,1-2.29-2.73V27H22.86v2.11C22.86,30.86,24.9,32.27,27.43,32.27Z"/><path id="Shape-7" data-name="Shape" class="cls-5" d="M41.14,59.74H33.52c-.84,0-1.52-.47-1.52-1.06s.68-1.06,1.52-1.06h7.62c7.57,0,13.71-4.26,13.71-9.51V44.95c0-.58.68-1.06,1.52-1.06s1.52.47,1.52,1.06v3.17C57.89,54.53,50.4,59.73,41.14,59.74Z"/><path id="Shape-8" data-name="Shape" class="cls-6" d="M36.57,24.88v4.22c0,1.75-2,3.17-4.57,3.17s-4.57-1.42-4.57-3.17V24.88c0-1.75,2-3.17,4.57-3.17S36.57,23.13,36.57,24.88Z"/><path id="Shape-9" data-name="Shape" class="cls-5" d="M9.14,32.27H7.62c-.84,0-1.52-.47-1.52-1.06s.68-1.06,1.52-1.06H9.14c.84,0,1.52.47,1.52,1.06S10,32.27,9.14,32.27Z"/><path id="Shape-10" data-name="Shape" class="cls-5" d="M19.81,32.27H15.24c-.84,0-1.52-.47-1.52-1.06s.68-1.06,1.52-1.06h4.57c.84,0,1.52.47,1.52,1.06S20.65,32.27,19.81,32.27Z"/><path id="Shape-11" data-name="Shape" class="cls-5" d="M56.38,41.78c-.84,0-1.52-.47-1.52-1.06V38.61c0-.58.68-1.06,1.52-1.06s1.52.47,1.52,1.06v2.11C57.9,41.31,57.22,41.78,56.38,41.78Z"/><path id="Shape-12" data-name="Shape" d="M47.24.59H16.76C7.51.59,0,5.79,0,12.21V48.12C0,56.86,10.24,64,22.86,64H41.14C53.76,64,64,56.86,64,48.12V12.21C64,5.79,56.49.6,47.24.59Zm-6.1,61.26H22.86C11.92,61.84,3.06,55.7,3,48.12V28H25.9v1.06c0,2.33,2.73,4.22,6.1,4.22s6.1-1.89,6.1-4.22V28H61V48.12C60.94,55.7,52.08,61.84,41.14,61.85ZM35,29.11c0,1.17-1.36,2.11-3,2.11s-3-.95-3-2.11V24.88c0-1.17,1.36-2.11,3-2.11s3,.95,3,2.11ZM61,25.94H38.1V24.88c0-2.33-2.73-4.22-6.1-4.22s-6.1,1.89-6.1,4.22v1.06H3V12.21C3.06,7,9.19,2.71,16.76,2.7H47.24C54.81,2.71,60.94,7,61,12.21Z"/><path id="Shape-13" data-name="Shape" d="M33.08,4.06a2,2,0,0,0-2.15,0L26.35,7.23a.84.84,0,0,0,.06,1.45,2,2,0,0,0,2.09,0L32,6.3l3.49,2.42a2,2,0,0,0,2.09,0,.84.84,0,0,0,.06-1.45Z"/><path id="Shape-14" data-name="Shape" d="M33.08,9.34a2,2,0,0,0-2.15,0l-4.57,3.17A.84.84,0,0,0,26.41,14a2,2,0,0,0,2.09,0L32,11.58,35.49,14a2,2,0,0,0,2.14,0,.85.85,0,0,0,0-1.48Z"/><path id="Shape-15" data-name="Shape" d="M33.08,14.62a2,2,0,0,0-2.15,0l-4.57,3.17a.84.84,0,0,0,.06,1.45,2,2,0,0,0,2.09,0L32,16.86l3.49,2.42a2,2,0,0,0,2.14,0,.85.85,0,0,0,0-1.48Z"/><path id="Shape-16" data-name="Shape" d="M35.49,45.25,32,47.68l-3.5-2.42a2,2,0,0,0-2.09,0,.84.84,0,0,0-.06,1.45l4.57,3.17a2,2,0,0,0,2.15,0l4.57-3.17a.85.85,0,0,0,0-1.48,2,2,0,0,0-2.14,0Z"/><path id="Shape-17" data-name="Shape" d="M35.49,40,32,42.4,28.5,40a2,2,0,0,0-2.09,0,.84.84,0,0,0-.06,1.45l4.57,3.17a2,2,0,0,0,2.15,0l4.57-3.17a.85.85,0,0,0,0-1.48,2,2,0,0,0-2.14,0Z"/><path id="Shape-18" data-name="Shape" d="M35.49,34.69,32,37.11l-3.5-2.42a2,2,0,0,0-2.09,0,.84.84,0,0,0-.06,1.45l4.57,3.17a2,2,0,0,0,2.15,0l4.57-3.17a.85.85,0,0,0,0-1.48,2,2,0,0,0-2.14,0Z"/></g></g></svg>