<svg id="Layer_1" data-name="Layer 1" xmlns="http://www.w3.org/2000/svg" viewBox="0 0 64 64"><defs><style>.cls-1{fill:#696b6f;}.cls-2{fill:#616267;}.cls-3{fill:#83f5fe;}.cls-4{fill:#957856;}.cls-5{fill:#ffe477;}.cls-6{fill:#ffb655;}.cls-7{fill:#816952;}</style></defs><title>Untitled-1</title><path class="cls-1" d="M6.75,41.59,1.83,46.22a5.65,5.65,0,0,0,0,8.33l5.9,5.56a6.54,6.54,0,0,0,8.85,0l4.92-4.63Z"/><path class="cls-2" d="M4.79,57.33l3,2.78a6.54,6.54,0,0,0,8.85,0l4.92-4.63-7.38-6.94Z"/><polygon class="cls-3" points="2.82 45.29 20.53 28.62 35.28 42.51 17.57 59.18 2.82 45.29"/><polygon class="cls-3" points="27.91 35.57 35.28 42.51 17.57 59.18 10.2 52.23 27.91 35.57"/><path class="cls-4" d="M18.07,42l-3-2.78a1.88,1.88,0,0,1,0-2.78h0a2.18,2.18,0,0,1,3,0l3,2.78A1.88,1.88,0,0,1,21,42h0A2.18,2.18,0,0,1,18.07,42Z"/><path class="cls-5" d="M51.52,13.35h0a1.88,1.88,0,0,1,0-2.78l4.92-4.63a2.18,2.18,0,0,1,3,0h0a1.88,1.88,0,0,1,0,2.78l-4.92,4.63A2.18,2.18,0,0,1,51.52,13.35Z"/><path class="cls-6" d="M54.47,13.35l4.92-4.63a1.88,1.88,0,0,0,0-2.78l-7.87,7.41A2.18,2.18,0,0,0,54.47,13.35Z"/><path class="cls-3" d="M52,37.88,39.85,41.24,35.3,42.51h0l-7.37-6.94-7.39-7h0c.07-.2.63-2,1.34-4.3,1.43-4.57,3.49-11.17,3.59-11.43v0h0L38.72,25.39h0L52,37.87Z"/><polygon class="cls-3" points="52.01 37.88 39.85 41.24 35.3 42.51 35.28 42.51 27.91 35.57 27.91 35.56 38.72 25.39 38.73 25.39 51.99 37.87 52.01 37.88"/><path class="cls-1" d="M56.43,33.72,52,37.86l-26.52-25,4.41-4.19a6.53,6.53,0,0,1,8.85,0L56.43,25.38A5.64,5.64,0,0,1,56.43,33.72Z"/><path class="cls-2" d="M56.43,33.72,52,37.86,38.73,25.38,47.58,17l8.85,8.33A5.64,5.64,0,0,1,56.43,33.72Z"/><path class="cls-5" d="M45.22,9.53h0a2,2,0,0,1-2.09-2V3.64a2,2,0,0,1,2.09-2h0a2,2,0,0,1,2.09,2V7.56A2,2,0,0,1,45.22,9.53Z"/><path class="cls-6" d="M61.91,21.31H57.74a2,2,0,0,1-2.09-2h0a2,2,0,0,1,2.09-2h4.17a2,2,0,0,1,2.09,2h0A2,2,0,0,1,61.91,21.31Z"/><path class="cls-4" d="M39.85,41.24,35.3,42.51h0l-7.37-6.94h0l-7.39-6.94h0c.07-.2.63-2,1.34-4.3l9,8.47Z"/><polygon class="cls-7" points="27.91 35.56 27.91 35.56 27.91 35.57 35.28 42.51 39.85 41.24 30.86 32.78 27.91 35.56"/></svg>