<svg id="Layer_1" data-name="Layer 1" xmlns="http://www.w3.org/2000/svg" viewBox="0 0 64 64"><defs><style>.cls-1{fill:#a6cfe7;}.cls-2{fill:#8db3cf;}.cls-3{fill:#fed4e4;}.cls-4{fill:#ff7169;}.cls-5{fill:#3ec3ff;}.cls-6{fill:#435d7a;}.cls-7{fill:#2d3e53;}.cls-8{fill:#fff;}.cls-9{fill:#fd3186;}</style></defs><title>Untitled-1</title><path class="cls-1" d="M44.45,2.71V6.59c0,3.77-2.72,6.85-6.06,6.85H24.55a1.8,1.8,0,0,0-1.68,1.89,1.8,1.8,0,0,0,1.68,1.89h4.63A4.34,4.34,0,0,1,32,18.28a5.56,5.56,0,0,1,1.88,4.25v6.63H30.12V22.53a1,1,0,0,0-.94-1.06H24.55c-3,0-5.44-2.76-5.44-6.14s2.44-6.14,5.44-6.14H38.39a2.46,2.46,0,0,0,2.3-2.6V2.71a1.9,1.9,0,1,1,3.76,0Z"/><path class="cls-2" d="M33.88,22.53v6.63H32V18.28A5.56,5.56,0,0,1,33.88,22.53Z"/><path class="cls-2" d="M44.45,2.71V6.59c0,3.77-2.72,6.85-6.06,6.85H32V9.18h6.39a2.46,2.46,0,0,0,2.3-2.6V2.71a1.9,1.9,0,1,1,3.76,0Z"/><path class="cls-3" d="M58.35,26.85H5.65C2.53,26.85,0,29.71,0,33.22V56.59C0,60.11,2.53,63,5.65,63H58.35C61.47,63,64,60.11,64,56.59V33.22c0-3.52-2.53-6.37-5.65-6.37Z"/><path class="cls-4" d="M64,33.22V56.59C64,60.11,61.47,63,58.35,63H32V26.85H58.35C61.47,26.85,64,29.71,64,33.22Z"/><path class="cls-3" d="M64,33.22V56.59C64,60.11,61.47,63,58.35,63H32V26.85H58.35C61.47,26.85,64,29.71,64,33.22Z"/><path class="cls-5" d="M60.24,33.22V56.59a2,2,0,0,1-1.88,2.12H5.65a2,2,0,0,1-1.88-2.12V33.22A2,2,0,0,1,5.65,31.1H58.35A2,2,0,0,1,60.24,33.22Z"/><path class="cls-6" d="M60.24,33.22V56.59a2,2,0,0,1-1.88,2.12H5.65a2,2,0,0,1-1.88-2.12V33.22A2,2,0,0,1,5.65,31.1H58.35A2,2,0,0,1,60.24,33.22Z"/><path class="cls-7" d="M60.24,33.22V56.59a2,2,0,0,1-1.88,2.12H32V31.1H58.35A2,2,0,0,1,60.24,33.22Z"/><path class="cls-8" d="M35.49,45.34a2,2,0,0,1-1.88,2.12H30.39a2.14,2.14,0,0,1,0-4.25h3.21A2,2,0,0,1,35.49,45.34Z"/><path class="cls-8" d="M35.49,37.19a2,2,0,0,1-1.88,2.12H30.39a2.14,2.14,0,0,1,0-4.25h3.21A2,2,0,0,1,35.49,37.19Z"/><path class="cls-8" d="M12,35.06H8.81a2.14,2.14,0,0,0,0,4.25H12a2.14,2.14,0,0,0,0-4.25Z"/><path class="cls-8" d="M19.6,39.31h3.21a2.14,2.14,0,0,0,0-4.25H19.6a2.14,2.14,0,0,0,0,4.25Z"/><path class="cls-8" d="M12,43.22H8.81a2.14,2.14,0,0,0,0,4.25H12a2.14,2.14,0,0,0,0-4.25Z"/><path class="cls-8" d="M19.6,47.47h3.21a2.14,2.14,0,0,0,0-4.25H19.6a2.14,2.14,0,0,0,0,4.25Z"/><path class="cls-8" d="M12,51.51H8.81a2.14,2.14,0,0,0,0,4.25H12a2.14,2.14,0,0,0,0-4.25Z"/><path class="cls-8" d="M46.28,53.63a2,2,0,0,1-1.88,2.12H19.6a2.14,2.14,0,0,1,0-4.25H44.4A2,2,0,0,1,46.28,53.63Z"/><path class="cls-9" d="M55.13,49A2,2,0,0,0,57,46.91V43.29a1.9,1.9,0,1,0-3.76,0v1.5H51.11a2.14,2.14,0,0,0,0,4.25Z"/><path class="cls-1" d="M33.61,39.31H32V35.06h1.61a2.14,2.14,0,0,1,0,4.25Z"/><path class="cls-1" d="M33.61,47.46H32V43.22h1.61a2.14,2.14,0,0,1,0,4.25Z"/><path class="cls-1" d="M46.28,53.63a2,2,0,0,1-1.88,2.12H32V51.51H44.4A2,2,0,0,1,46.28,53.63Z"/><path class="cls-1" d="M44.4,35.06H41.19a2.14,2.14,0,0,0,0,4.25H44.4a2.14,2.14,0,0,0,0-4.25Z"/><path class="cls-1" d="M52,39.31h3.21a2.14,2.14,0,0,0,0-4.25H52a2.14,2.14,0,0,0,0,4.25Z"/><path class="cls-1" d="M44.4,43.22H41.19a2.14,2.14,0,0,0,0,4.25H44.4a2.14,2.14,0,0,0,0-4.25Z"/><path class="cls-1" d="M55.19,51.51H52a2.14,2.14,0,0,0,0,4.25h3.21a2.14,2.14,0,0,0,0-4.25Z"/></svg>