<svg id="Layer_1" data-name="Layer 1" xmlns="http://www.w3.org/2000/svg" viewBox="0 0 64 64"><defs><style>.cls-1{fill:#83f5fe;}.cls-2{fill:#714c2f;}.cls-3{fill:#523522;}.cls-4{fill:#895d3c;}</style></defs><title>Untitled-1</title><path class="cls-1" d="M51.83,39.22a44.62,44.62,0,0,1,8.33-11.51,2,2,0,0,0,.5-1.78,1.82,1.82,0,0,0-1.22-1.33l-6.18-2C56.68,13.1,61.45,7,63.78,2.76A1.81,1.81,0,0,0,63.41.59,1.81,1.81,0,0,0,61.24.22c-4.35,2.44-10.39,7.1-19.81,10.52l-2-6.18a1.91,1.91,0,0,0-1.33-1.22,2,2,0,0,0-1.78.5,44.64,44.64,0,0,1-11.51,8.33C12.26,18.64,10.91,18.62,7.12,22.41A24.37,24.37,0,0,0,41.59,56.88C46,52.48,46.28,49.38,51.83,39.22Z"/><path class="cls-1" d="M41.59,56.88a24.42,24.42,0,0,1-34.47,0L63.41.59a1.81,1.81,0,0,1,.37,2.17C61.45,7,56.68,13.1,53.26,22.57l6.18,2a1.82,1.82,0,0,1,1.22,1.33,2,2,0,0,1-.5,1.78,44.63,44.63,0,0,0-8.33,11.51C46.28,49.38,46,52.48,41.59,56.88Z"/><path class="cls-1" d="M40.05,45.8,18.2,23.95l9.94-5.06a51.67,51.67,0,0,0,4.72-2.71A2,2,0,0,1,34.54,16a2.1,2.1,0,0,1,1.17,1.17l1,3.08,7-2.33a1.95,1.95,0,0,1,2.39,2.39l-2.33,7,3.08,1A2.1,2.1,0,0,1,48,29.46a2,2,0,0,1-.19,1.67,51.75,51.75,0,0,0-2.71,4.72Z"/><path class="cls-1" d="M40.05,45.8,29.13,34.87,45.59,18.41a1.85,1.85,0,0,1,.5,1.88l-2.33,7,3.08,1A2.1,2.1,0,0,1,48,29.46a2,2,0,0,1-.19,1.67,51.75,51.75,0,0,0-2.71,4.72Z"/><path class="cls-2" d="M40.05,45.8A16.85,16.85,0,0,0,18.2,23.95a18.62,18.62,0,0,0-5.78,3.77A16.88,16.88,0,0,0,36.29,51.58,17.79,17.79,0,0,0,40.05,45.8Z"/><path class="cls-3" d="M36.29,51.58a16.9,16.9,0,0,1-23.86,0L36.29,27.71A16.85,16.85,0,0,1,40.05,45.8,17.78,17.78,0,0,1,36.29,51.58Z"/><path class="cls-4" d="M18.57,54a1.88,1.88,0,0,1-2.65,0,5.5,5.5,0,0,1-1.62-4.27A5.58,5.58,0,0,1,15.92,46a5.68,5.68,0,0,1,8,0,1.86,1.86,0,0,1,0,2.65,1.88,1.88,0,0,1-2.65,0,1.86,1.86,0,0,0-2.65,0,1.88,1.88,0,0,0,0,2.65A1.86,1.86,0,0,1,18.57,54Z"/><path class="cls-4" d="M25.68,41A1.87,1.87,0,0,1,23,38.32a1.87,1.87,0,1,0-2.65,0A1.87,1.87,0,0,1,17.73,41a5.63,5.63,0,1,1,8-8,5.68,5.68,0,0,1,0,8Z"/><path class="cls-2" d="M31,43.62a1.87,1.87,0,1,0,0,2.65A1.88,1.88,0,0,0,31,43.62Z"/><path class="cls-2" d="M33.64,35.67a1.87,1.87,0,1,0,0,2.65A1.88,1.88,0,0,0,33.64,35.67Z"/><path class="cls-2" d="M23,41,27.3,36.7A5.5,5.5,0,0,1,25.68,41,1.86,1.86,0,0,1,23,41Z"/><path class="cls-2" d="M18.57,54a1.88,1.88,0,0,1-2.65,0,5.5,5.5,0,0,1-1.62-4.27l5.3-5.3A5.5,5.5,0,0,1,23.88,46a1.86,1.86,0,0,1,0,2.65,1.88,1.88,0,0,1-2.65,0,1.86,1.86,0,0,0-2.65,0,1.88,1.88,0,0,0,0,2.65A1.86,1.86,0,0,1,18.57,54Z"/></svg>